HIERARCHY
ROOT Hips
{
	OFFSET 0.000000 121.760803 0.000000
	CHANNELS 6 Xposition Yposition Zposition Xrotation Yrotation Zrotation 
	JOINT Spine
	{
		OFFSET 0.072000 7.257294 -0.789700
		CHANNELS 3 Xrotation Yrotation Zrotation
		JOINT Spine1
		{
			OFFSET 0.000000 12.508769 -0.658067
			CHANNELS 3 Xrotation Yrotation Zrotation
			JOINT Spine1_split
			{
				OFFSET 0.000000 12.508769 -0.658067
				CHANNELS 3 Xrotation Yrotation Zrotation
				JOINT Spine2
				{
					OFFSET 0.000000 12.508769 -0.658067
					CHANNELS 3 Xrotation Yrotation Zrotation
					JOINT Neck
					{
						OFFSET 0.000000 14.033295 7.520400
						CHANNELS 3 Xrotation Yrotation Zrotation
						JOINT Head
						{
							OFFSET 0.000000 8.198502 5.703100
							CHANNELS 3 Xrotation Yrotation Zrotation
							JOINT HeadTop_End
							{
								OFFSET 0.000000 17.760803 13.332701
								CHANNELS 3 Xrotation Yrotation Zrotation
								End Site
								{
									OFFSET 0.000000 0.000000 0.000000
								}
							}
						}
					}
					JOINT LeftShoulder
					{
						OFFSET 6.292450 5.785301 -0.669000
						CHANNELS 3 Xrotation Yrotation Zrotation
						JOINT LeftShoulder_split
						{
							OFFSET 6.292450 5.785301 -0.669000
							CHANNELS 3 Xrotation Yrotation Zrotation
							JOINT LeftArm
							{
								OFFSET 13.907140 -6.093903 1.965100
								CHANNELS 3 Xrotation Yrotation Zrotation
								JOINT LeftForeArm
								{
									OFFSET 34.140198 0.000000 0.000000
									CHANNELS 3 Xrotation Yrotation Zrotation
									JOINT LeftHand
									{
										OFFSET 40.960209 0.000000 0.000000
										CHANNELS 3 Xrotation Yrotation Zrotation
										JOINT LeftHandThumb1
										{
											OFFSET 10.006996 -7.170425 9.573125
											CHANNELS 3 Xrotation Yrotation Zrotation
											JOINT LeftHandThumb2
											{
												OFFSET 1.835007 -1.059448 1.059443
												CHANNELS 3 Xrotation Yrotation Zrotation
												JOINT LeftHandThumb3
												{
													OFFSET 2.112267 -1.219513 1.219518
													CHANNELS 3 Xrotation Yrotation Zrotation
													JOINT LeftHandThumb4
													{
														OFFSET 4.843811 -2.796570 2.796576
														CHANNELS 3 Xrotation Yrotation Zrotation
														End Site
														{
															OFFSET 0.000000 0.000000 0.000000
														}
													}
												}
											}
										}
										JOINT LeftHandIndex1
										{
											OFFSET 18.389847 -0.922348 4.596882
											CHANNELS 3 Xrotation Yrotation Zrotation
											JOINT LeftHandIndex2
											{
												OFFSET 4.711273 0.000000 0.000000
												CHANNELS 3 Xrotation Yrotation Zrotation
												JOINT LeftHandIndex3
												{
													OFFSET 2.886131 0.000000 0.000000
													CHANNELS 3 Xrotation Yrotation Zrotation
													JOINT LeftHandIndex4
													{
														OFFSET 6.145912 0.000000 0.000000
														CHANNELS 3 Xrotation Yrotation Zrotation
														End Site
														{
															OFFSET 0.000000 0.000000 0.000000
														}
													}
												}
											}
										}
										JOINT LeftHandMiddle1
										{
											OFFSET 18.013008 0.000000 0.000000
											CHANNELS 3 Xrotation Yrotation Zrotation
											JOINT LeftHandMiddle2
											{
												OFFSET 4.946693 0.000000 0.000000
												CHANNELS 3 Xrotation Yrotation Zrotation
												JOINT LeftHandMiddle3
												{
													OFFSET 3.342232 0.000000 0.000000
													CHANNELS 3 Xrotation Yrotation Zrotation
													JOINT LeftHandMiddle4
													{
														OFFSET 4.461754 0.000000 0.000000
														CHANNELS 3 Xrotation Yrotation Zrotation
														End Site
														{
															OFFSET 0.000000 0.000000 0.000000
														}
													}
												}
											}
										}
										JOINT LeftHandRing1
										{
											OFFSET 15.849892 -0.102921 -4.126150
											CHANNELS 3 Xrotation Yrotation Zrotation
											JOINT LeftHandRing2
											{
												OFFSET 3.527054 0.000000 0.000000
												CHANNELS 3 Xrotation Yrotation Zrotation
												JOINT LeftHandRing3
												{
													OFFSET 2.961098 0.000000 0.000000
													CHANNELS 3 Xrotation Yrotation Zrotation
													JOINT LeftHandRing4
													{
														OFFSET 4.927200 0.000000 0.000000
														CHANNELS 3 Xrotation Yrotation Zrotation
														End Site
														{
															OFFSET 0.000000 0.000000 0.000000
														}
													}
												}
											}
										}
										JOINT LeftHandPinky1
										{
											OFFSET 12.791824 -0.832031 -6.799156
											CHANNELS 3 Xrotation Yrotation Zrotation
											JOINT LeftHandPinky2
											{
												OFFSET 3.327133 0.000000 0.000000
												CHANNELS 3 Xrotation Yrotation Zrotation
												JOINT LeftHandPinky3
												{
													OFFSET 3.014900 0.000000 0.000000
													CHANNELS 3 Xrotation Yrotation Zrotation
													JOINT LeftHandPinky4
													{
														OFFSET 5.847786 0.000000 0.000000
														CHANNELS 3 Xrotation Yrotation Zrotation
														End Site
														{
															OFFSET 0.000000 0.000000 0.000000
														}
													}
												}
											}
										}
									}
								}
							}
						}
					}
					JOINT RightShoulder
					{
						OFFSET -6.292450 5.785301 -0.669000
						CHANNELS 3 Xrotation Yrotation Zrotation
						JOINT RightShoulder_split
						{
							OFFSET -6.292450 5.785301 -0.669000
							CHANNELS 3 Xrotation Yrotation Zrotation
							JOINT RightArm
							{
								OFFSET -13.907140 -6.093903 1.965100
								CHANNELS 3 Xrotation Yrotation Zrotation
								JOINT RightForeArm
								{
									OFFSET -34.140198 0.000000 0.000000
									CHANNELS 3 Xrotation Yrotation Zrotation
									JOINT RightHand
									{
										OFFSET -40.960209 0.000000 0.000000
										CHANNELS 3 Xrotation Yrotation Zrotation
										JOINT RightHandThumb1
										{
											OFFSET -10.007050 -7.170456 9.573117
											CHANNELS 3 Xrotation Yrotation Zrotation
											JOINT RightHandThumb2
											{
												OFFSET -1.835007 -1.059448 1.059443
												CHANNELS 3 Xrotation Yrotation Zrotation
												JOINT RightHandThumb3
												{
													OFFSET -2.112267 -1.219513 1.219518
													CHANNELS 3 Xrotation Yrotation Zrotation
													JOINT RightHandThumb4
													{
														OFFSET -4.843834 -2.796585 2.796590
														CHANNELS 3 Xrotation Yrotation Zrotation
														End Site
														{
															OFFSET 0.000000 0.000000 0.000000
														}
													}
												}
											}
										}
										JOINT RightHandIndex1
										{
											OFFSET -18.389870 -0.922424 4.596786
											CHANNELS 3 Xrotation Yrotation Zrotation
											JOINT RightHandIndex2
											{
												OFFSET -4.711273 0.000000 0.000000
												CHANNELS 3 Xrotation Yrotation Zrotation
												JOINT RightHandIndex3
												{
													OFFSET -2.886131 0.000000 0.000000
													CHANNELS 3 Xrotation Yrotation Zrotation
													JOINT RightHandIndex4
													{
														OFFSET -6.145920 0.000000 0.000000
														CHANNELS 3 Xrotation Yrotation Zrotation
														End Site
														{
															OFFSET 0.000000 0.000000 0.000000
														}
													}
												}
											}
										}
										JOINT RightHandMiddle1
										{
											OFFSET -18.013008 0.000000 0.000000
											CHANNELS 3 Xrotation Yrotation Zrotation
											JOINT RightHandMiddle2
											{
												OFFSET -4.946693 0.000000 0.000000
												CHANNELS 3 Xrotation Yrotation Zrotation
												JOINT RightHandMiddle3
												{
													OFFSET -3.342232 0.000000 0.000000
													CHANNELS 3 Xrotation Yrotation Zrotation
													JOINT RightHandMiddle4
													{
														OFFSET -4.461754 0.000000 0.000000
														CHANNELS 3 Xrotation Yrotation Zrotation
														End Site
														{
															OFFSET 0.000000 0.000000 0.000000
														}
													}
												}
											}
										}
										JOINT RightHandRing1
										{
											OFFSET -15.849876 -0.102936 -4.126237
											CHANNELS 3 Xrotation Yrotation Zrotation
											JOINT RightHandRing2
											{
												OFFSET -3.527054 0.000000 0.000000
												CHANNELS 3 Xrotation Yrotation Zrotation
												JOINT RightHandRing3
												{
													OFFSET -2.961098 0.000000 0.000000
													CHANNELS 3 Xrotation Yrotation Zrotation
													JOINT RightHandRing4
													{
														OFFSET -4.927200 0.000000 0.000000
														CHANNELS 3 Xrotation Yrotation Zrotation
														End Site
														{
															OFFSET 0.000000 0.000000 0.000000
														}
													}
												}
											}
										}
										JOINT RightHandPinky1
										{
											OFFSET -12.791786 -0.832077 -6.799222
											CHANNELS 3 Xrotation Yrotation Zrotation
											JOINT RightHandPinky2
											{
												OFFSET -3.327133 0.000000 0.000000
												CHANNELS 3 Xrotation Yrotation Zrotation
												JOINT RightHandPinky3
												{
													OFFSET -3.014900 0.000000 0.000000
													CHANNELS 3 Xrotation Yrotation Zrotation
													JOINT RightHandPinky4
													{
														OFFSET -5.847786 0.000000 0.000000
														CHANNELS 3 Xrotation Yrotation Zrotation
														End Site
														{
															OFFSET 0.000000 0.000000 0.000000
														}
													}
												}
											}
										}
									}
								}
							}
						}
					}
				}
			}
		}
	}
	JOINT LeftUpLeg
	{
		OFFSET 13.026900 -6.336304 -1.092800
		CHANNELS 3 Xrotation Yrotation Zrotation
		JOINT LeftLeg
		{
			OFFSET 0.524474 -46.096886 9.782700
			CHANNELS 3 Xrotation Yrotation Zrotation
			JOINT LeftFoot
			{
				OFFSET -0.524474 -53.427422 -12.948200
				CHANNELS 3 Xrotation Yrotation Zrotation
				JOINT LeftToeBase
				{
					OFFSET 0.192200 -14.009700 16.364100
					CHANNELS 3 Xrotation Yrotation Zrotation
					JOINT LeftToe_End
					{
						OFFSET -1.784700 -0.561700 9.474800
						CHANNELS 3 Xrotation Yrotation Zrotation
						End Site
						{
							OFFSET 0.000000 0.000000 0.000000
						}
					}
				}
			}
		}
	}
	JOINT RightUpLeg
	{
		OFFSET -12.883000 -6.336304 -1.092800
		CHANNELS 3 Xrotation Yrotation Zrotation
		JOINT RightLeg
		{
			OFFSET -0.524587 -46.096825 9.782800
			CHANNELS 3 Xrotation Yrotation Zrotation
			JOINT RightFoot
			{
				OFFSET 0.524587 -53.427383 -12.948300
				CHANNELS 3 Xrotation Yrotation Zrotation
				JOINT RightToeBase
				{
					OFFSET -0.192200 -14.009700 16.364100
					CHANNELS 3 Xrotation Yrotation Zrotation
					JOINT RightToe_End
					{
						OFFSET 1.784700 -0.561700 9.474800
						CHANNELS 3 Xrotation Yrotation Zrotation
						End Site
						{
							OFFSET 0.000000 0.000000 0.000000
						}
					}
				}
			}
		}
	}
}
MOTION
Frames: 4
Frame Time: 0.016667
-0.969114 108.548218 54.224834 10.279816 -5.128854 0.214694 5.320117 0.068083 -1.351540 2.188026 -0.566218 -0.158979 0.000000 0.000000 0.000000 0.272736 -0.972617 0.898067 12.585923 -0.308786 2.188554 -30.323014 0.842207 -5.312840 -0.000000 0.000000 -0.000000 5.876924 -7.979694 20.002226 0.000000 0.000000 0.000000 -34.254673 -16.965592 -14.997632 -0.000019 -124.447508 -0.000025 -1.398394 -13.673593 39.579512 28.620006 -24.676674 7.683729 13.196515 30.099366 -41.312051 -17.405865 27.733881 25.698865 -0.000001 -0.000002 0.000003 3.052571 -0.236014 -15.996353 0.004175 0.221371 -2.160731 1.078587 3.388953 -35.300275 0.000001 0.000002 -0.000001 0.872755 5.500593 -21.877308 0.087926 1.012249 -9.928495 0.940785 3.185745 -32.897548 0.000000 -0.000000 0.000001 1.471999 7.478238 -18.525771 0.300206 1.853021 -18.403443 0.758647 2.885163 -29.459043 0.000000 -0.000001 -0.000000 -1.697505 15.557755 -19.134816 0.370821 2.052993 -20.475329 0.356883 2.015283 -20.082566 -0.000001 -0.000001 -0.000000 -1.569645 -8.377660 -14.965267 0.000000 0.000000 0.000000 -29.516130 36.059929 26.253343 -0.000001 121.356370 0.000006 1.490561 12.183667 -43.921190 27.217078 26.328170 -7.221386 12.620636 -31.646418 39.727724 -15.731346 -33.858163 -24.893304 0.000002 -0.000001 0.000002 3.344719 0.259449 17.143657 0.003480 -0.180156 2.211966 0.860066 -2.698501 35.350754 -0.000000 -0.000000 0.000001 0.921711 -5.175104 25.205483 0.070802 -0.809845 9.992543 0.770286 -2.567385 33.396545 0.000000 -0.000001 0.000003 1.333958 -6.500126 20.818239 0.269516 -1.562849 19.567780 0.649073 -2.373515 30.584945 -0.000000 0.000000 -0.000000 -2.139005 -15.198735 21.741682 0.300657 -1.647801 20.679359 0.227504 -1.439224 17.964098 -0.000001 -0.000002 -0.000000 -31.713019 5.400444 16.097643 35.335547 8.181284 0.286823 -12.494737 -3.307708 -14.279241 -0.109844 0.000003 -0.000000 0.000000 0.000000 -0.000000 -35.936245 -2.554615 -5.478396 36.617269 1.041316 -4.290914 -9.735018 -11.612569 9.376165 1.031099 -0.000019 0.000002 -0.000000 -0.000000 0.000000 
-1.051848 109.808525 54.688801 10.555876 -4.949217 0.237327 5.189929 0.061121 -1.352752 1.911444 -0.569145 -0.186931 0.000000 0.000000 0.000000 -0.161185 -0.970425 0.868122 12.453098 -0.296590 2.274848 -29.759933 0.843136 -5.284013 -0.000000 -0.000001 -0.000000 5.875350 -8.055284 20.055968 0.000000 0.000000 0.000000 -34.142558 -16.790068 -15.375128 -0.000019 -124.460090 -0.000027 -2.606257 -13.888120 39.182531 28.761469 -24.766934 7.719537 13.199944 30.105145 -41.441251 -17.402007 27.682986 25.682713 0.000005 -0.000002 -0.000000 3.069568 -0.215147 -16.039868 0.003673 0.207616 -2.026403 1.076569 3.386106 -35.266107 -0.000000 0.000001 0.000000 0.875035 5.503080 -21.943366 0.082609 0.981390 -9.622847 0.940112 3.184708 -32.885448 0.000001 -0.000000 0.000001 1.474903 7.486891 -18.524901 0.296683 1.842397 -18.294122 0.756989 2.882230 -29.426091 -0.000000 -0.000000 -0.000000 -1.764795 15.538904 -19.028345 0.367411 2.043842 -20.379905 0.354213 2.007978 -20.006550 -0.000000 0.000002 -0.000001 -1.577467 -8.399918 -14.977698 0.000000 0.000000 0.000000 -29.040803 36.106344 26.125873 -0.000001 121.325552 0.000007 0.621401 13.275601 -43.722449 27.195559 26.336463 -7.211344 12.611102 -31.646606 39.702401 -15.700566 -33.857985 -24.842308 0.000002 -0.000000 0.000002 3.355500 0.248068 17.203478 0.003508 -0.180910 2.221356 0.860261 -2.698771 35.354808 -0.000000 -0.000001 -0.000001 0.928099 -5.183131 25.338453 0.071173 -0.811964 10.018979 0.771290 -2.568898 33.418879 0.000000 0.000000 0.000000 1.330931 -6.479228 20.917188 0.270807 -1.566474 19.615180 0.650936 -2.376651 30.629864 0.000002 0.000001 0.000000 -2.120921 -15.198078 21.855224 0.301316 -1.649544 20.702204 0.225673 -1.433597 17.891233 -0.000000 0.000002 0.000001 -30.217440 5.898409 15.786348 32.422676 8.206320 0.288828 -11.461703 -3.484682 -14.059648 -0.109851 0.000001 0.000001 -0.000000 0.000001 -0.000000 -34.328773 -2.705762 -5.400220 33.877219 0.832174 -4.264934 -8.871445 -11.538512 9.390534 1.021073 -0.000005 -0.000002 0.000000 0.000000 -0.000000 
-1.132394 110.964386 55.101223 10.794859 -4.757587 0.255140 5.077884 0.054339 -1.351192 1.666093 -0.571977 -0.208916 0.000000 0.000000 0.000000 -0.559325 -0.968293 0.843850 12.301280 -0.295254 2.357713 -29.149553 0.800225 -5.276034 0.000000 -0.000000 0.000000 5.878845 -8.060531 20.101148 0.000000 0.000000 0.000000 -33.982216 -16.856637 -15.686667 -0.000020 -124.387608 -0.000024 -3.851811 -13.938192 39.134081 28.792615 -24.793650 7.783935 13.167948 30.092960 -41.468923 -17.377208 27.661902 25.629429 0.000002 -0.000002 0.000000 3.081260 -0.191206 -16.120742 0.003526 0.203396 -1.985208 1.076507 3.386020 -35.265120 0.000000 0.000001 0.000001 0.878238 5.506980 -22.027379 0.078930 0.959451 -9.405678 0.939787 3.184203 -32.879585 0.000000 0.000000 -0.000002 1.484608 7.508879 -18.559306 0.295692 1.839403 -18.263374 0.756987 2.882228 -29.425985 0.000000 0.000001 -0.000003 -1.807172 15.526707 -18.984873 0.366252 2.040717 -20.347374 0.353351 2.005595 -19.981800 -0.000000 0.000001 0.000000 -1.587336 -8.450120 -14.986750 0.000000 0.000000 0.000000 -28.633703 36.187736 26.024552 -0.000027 121.147202 0.000033 -0.032550 14.261435 -43.465292 27.172992 26.344574 -7.200397 12.601717 -31.646944 39.677105 -15.669714 -33.859543 -24.791264 -0.000000 0.000001 0.000001 3.366420 0.236508 17.265617 0.003552 -0.182017 2.234961 0.860522 -2.699142 35.360419 0.000000 -0.000001 0.000001 0.934620 -5.191295 25.473981 0.071597 -0.814358 10.048936 0.772381 -2.570565 33.443314 -0.000000 0.000000 -0.000001 1.327860 -6.458147 21.018504 0.272229 -1.570453 19.667016 0.652948 -2.380048 30.678396 -0.000001 0.000003 -0.000001 -2.102271 -15.197535 21.971404 0.302126 -1.651694 20.730423 0.223917 -1.428145 17.820995 0.000000 -0.000000 -0.000000 -28.782561 6.359000 15.485137 29.619556 8.225237 0.288380 -10.433837 -3.674551 -13.851502 -0.109851 -0.000003 0.000001 -0.000000 0.000001 -0.000000 -32.795047 -2.845332 -5.327664 31.256619 0.614338 -4.239063 -8.016238 -11.465097 9.399067 1.011058 -0.000004 -0.000001 0.000000 -0.000000 -0.000000 
-1.208208 111.993805 55.454216 10.969379 -4.566450 0.275080 4.985733 0.047202 -1.348519 1.454995 -0.575848 -0.227307 0.000000 0.000000 0.000000 -0.918374 -0.967315 0.822786 12.149645 -0.303945 2.434267 -28.491243 0.716114 -5.283605 -0.000000 -0.000000 -0.000000 5.881370 -7.946040 20.121319 0.000000 0.000000 0.000000 -33.764398 -17.243368 -15.928119 -0.000016 -124.230896 -0.000022 -5.100331 -13.844760 39.465663 28.512994 -24.637889 7.851869 13.061378 30.072722 -41.232677 -17.303779 27.711732 25.495631 -0.000003 0.000001 -0.000005 3.077370 -0.164143 -16.281197 0.004282 0.224187 -2.188231 1.081493 3.393042 -35.349385 0.000000 -0.000000 0.000001 0.883469 5.514448 -22.140961 0.079767 0.964483 -9.455460 0.940443 3.185217 -32.891394 -0.000000 0.000000 -0.000001 1.509847 7.560502 -18.676280 0.301352 1.856463 -18.438886 0.761238 2.889740 -29.510430 0.000001 0.000000 0.000001 -1.778066 15.533314 -19.108684 0.371053 2.053606 -20.481733 0.357224 2.016220 -20.092287 0.000001 0.000000 -0.000002 -1.601077 -8.534187 -15.002517 0.000000 0.000000 0.000000 -28.345517 36.296868 26.002359 0.000003 120.828860 0.000002 -0.558086 15.208075 -43.049070 27.151411 26.352577 -7.190631 12.592144 -31.647108 39.651765 -15.638948 -33.859563 -24.740081 -0.000000 0.000000 -0.000003 3.377262 0.225129 17.325632 0.003583 -0.182830 2.244906 0.860658 -2.699329 35.363352 0.000000 0.000000 0.000001 0.941038 -5.199280 25.607127 0.071982 -0.816518 10.075863 0.773387 -2.572082 33.465741 0.000000 -0.000002 0.000000 1.324659 -6.437264 21.117606 0.273542 -1.574133 19.714964 0.654826 -2.383213 30.723700 0.000001 0.000001 -0.000001 -2.084211 -15.196768 22.085104 0.302794 -1.653471 20.753796 0.222106 -1.422490 17.747886 -0.000000 0.000003 -0.000001 -27.416079 6.782284 15.195762 26.998146 8.237107 0.285250 -9.445093 -3.867042 -13.658653 -0.109848 0.000000 0.000003 0.000000 0.000000 0.000000 -31.353854 -2.974403 -5.271397 28.831219 0.408430 -4.213329 -7.201560 -11.394560 9.398438 1.001027 0.000014 0.000000 0.000000 -0.000000 -0.000000 
